<svg width="157" height="173" viewBox="0 0 157 173" fill="none" xmlns="http://www.w3.org/2000/svg">
<path d="M93.8117 64.5718C94.3947 64.5718 94.9622 64.6872 95.4984 64.9148C100.755 67.141 105.476 70.3274 109.535 74.3838C113.592 78.4402 116.778 83.1638 119.004 88.4206C121.311 93.8676 122.484 99.6481 122.484 105.6C122.484 111.552 121.315 117.333 119.004 122.78C118.325 124.386 116.759 125.424 115.013 125.424C114.43 125.424 113.863 125.308 113.323 125.081C111.125 124.149 110.093 121.601 111.026 119.403C112.878 115.029 113.816 110.386 113.816 105.603C113.816 100.82 112.878 96.1779 111.026 91.8035C109.236 87.5788 106.673 83.778 103.409 80.5136C100.144 77.2492 96.3434 74.6863 92.1186 72.8935C89.9205 71.9612 88.8885 69.4139 89.8208 67.2158C90.5005 65.6101 92.0657 64.5718 93.8117 64.5718Z" fill="white"/>
<path d="M95.5016 146.286C90.0546 148.593 84.274 149.765 78.322 149.765C72.3699 149.765 66.5924 148.596 61.1424 146.286C55.8856 144.059 51.1651 140.873 47.1087 136.816C45.4188 135.127 45.4188 132.38 47.1087 130.69C47.9287 129.873 49.0138 129.421 50.1705 129.421C51.3273 129.421 52.4154 129.87 53.2323 130.69C56.4967 133.954 60.2943 136.517 64.5222 138.31C68.8935 140.162 73.536 141.1 78.322 141.1C83.1079 141.1 87.7505 140.162 92.1218 138.31C92.6612 138.082 93.2287 137.967 93.8086 137.967C95.5515 137.967 97.1197 139.005 97.7994 140.611C98.7317 142.809 97.6997 145.356 95.5016 146.289V146.286Z" fill="white"/>
<path d="M37.6365 88.4236C39.8627 83.1669 43.0491 78.4433 47.1055 74.3869C51.1619 70.3305 55.8855 67.144 61.1423 64.9178C61.6817 64.6902 62.2492 64.5749 62.8291 64.5749C64.572 64.5749 66.1403 65.6131 66.82 67.2188C67.2721 68.2851 67.2814 69.4606 66.8449 70.5332C66.4084 71.6057 65.5853 72.4444 64.519 72.8965C60.2943 74.6862 56.4966 77.2491 53.2291 80.5167C49.9646 83.7811 47.4018 87.5787 45.609 91.8066C43.7569 96.1778 42.8184 100.82 42.8184 105.606C42.8184 107.995 40.876 109.937 38.4877 109.937C36.0994 109.937 34.1569 107.995 34.1569 105.606C34.1569 99.6543 35.3261 93.8737 37.6365 88.4268V88.4236Z" fill="white"/>
<path d="M90.6251 134.718C90.0857 134.946 89.5183 135.061 88.9384 135.061C87.1954 135.061 85.6271 134.023 84.9474 132.417C84.0183 130.216 85.0504 127.672 87.2485 126.74C89.9798 125.583 92.4335 123.93 94.5412 121.823C96.6489 119.712 98.3045 117.258 99.4581 114.53C100.652 111.705 101.26 108.702 101.26 105.603C101.26 103.215 103.203 101.273 105.591 101.273C107.979 101.273 109.922 103.215 109.922 105.603C109.922 109.869 109.086 114.006 107.437 117.907C105.847 121.67 103.568 125.05 100.665 127.952C97.762 130.852 94.3853 133.131 90.6189 134.724L90.6251 134.718Z" fill="white"/>
<path d="M69.3955 126.739C71.5936 127.672 72.6287 130.216 71.6964 132.417C71.0167 134.023 69.4516 135.061 67.7055 135.061C67.1256 135.061 66.5581 134.946 66.0187 134.718C62.2554 133.125 58.8757 130.849 55.976 127.946C53.0764 125.046 50.7972 121.667 49.204 117.903C47.5546 114.006 46.719 109.865 46.719 105.6C46.719 103.212 48.6614 101.269 51.0497 101.269C53.438 101.269 55.3805 103.212 55.3805 105.6C55.3805 108.699 55.9854 111.702 57.1826 114.527C58.3363 117.258 59.9919 119.712 62.0996 121.819C64.2073 123.927 66.6611 125.583 69.3923 126.736L69.3955 126.739Z" fill="white"/>
<path d="M100.668 83.2542C101.485 84.0711 101.937 85.1592 101.937 86.3159C101.937 87.4727 101.485 88.5608 100.668 89.3777C99.8511 90.1946 98.7629 90.6467 97.6062 90.6467C96.4494 90.6467 95.3612 90.1946 94.5444 89.3777C92.4367 87.27 89.9829 85.6144 87.2516 84.4608C84.4268 83.2666 81.4211 82.6587 78.3219 82.6587C75.2228 82.6587 72.2203 83.2635 69.3954 84.4608C66.6642 85.6144 64.2104 87.27 62.1027 89.3777C61.2827 90.1946 60.1976 90.6467 59.0409 90.6467C57.8841 90.6467 56.796 90.1977 55.9791 89.3777C54.2892 87.6878 54.2892 84.941 55.9791 83.2511C58.8788 80.3514 62.2586 78.0722 66.025 76.479C69.9255 74.8296 74.066 73.994 78.3282 73.994C82.5903 73.994 86.7309 74.8296 90.6314 76.479C94.3978 78.0722 97.7745 80.3514 100.677 83.2511L100.668 83.2542Z" fill="white"/>
<path d="M99.533 95.205C99.533 92.692 101.575 90.6498 104.088 90.6498C106.601 90.6498 108.643 92.692 108.643 95.205C108.643 97.7181 106.601 99.7603 104.088 99.7603C101.575 99.7603 99.533 97.7181 99.533 95.205Z" fill="white"/>
<path d="M49.2413 95.205C49.2413 92.692 51.2835 90.6498 53.7966 90.6498C56.3096 90.6498 58.3518 92.692 58.3518 95.205C58.3518 97.7181 56.3096 99.7603 53.7966 99.7603C51.2835 99.7603 49.2413 97.7181 49.2413 95.205Z" fill="white"/>
<path d="M73.7667 132.729C73.7667 130.216 75.8089 128.174 78.322 128.174C80.835 128.174 82.8772 130.216 82.8772 132.729C82.8772 135.242 80.835 137.284 78.322 137.284C75.8089 137.284 73.7667 135.242 73.7667 132.729Z" fill="white"/>
<path d="M112.338 133.755C112.338 136.573 110.043 138.868 107.225 138.868C104.406 138.868 102.111 136.573 102.111 133.755C102.111 130.936 104.406 128.641 107.225 128.641C110.043 128.641 112.338 130.936 112.338 133.755Z" fill="white"/>
<path d="M40.4302 115.976C43.2487 115.976 45.5435 118.271 45.5435 121.09C45.5435 123.908 43.2487 126.203 40.4302 126.203C37.6116 126.203 35.3168 123.908 35.3168 121.09C35.3168 118.271 37.6116 115.976 40.4302 115.976Z" fill="white"/>
<path d="M73.2086 66.8104C73.2086 63.9918 75.5033 61.6971 78.3219 61.6971C81.1405 61.6971 83.4353 63.9918 83.4353 66.8104C83.4353 69.629 81.1405 71.9237 78.3219 71.9237C75.5033 71.9237 73.2086 69.629 73.2086 66.8104Z" fill="white"/>
<path d="M39.4731 64.3285C40.5861 64.316 41.6774 64.2474 42.7437 64.1259C40.0998 66.5796 37.699 69.3327 35.5944 72.354C27.0296 84.626 24.186 98.4695 27.1449 113.507C27.65 116.076 27.3133 118.031 26.1129 119.487C24.9748 120.868 23.2257 121.57 20.9216 121.57C20.7002 121.57 20.4757 121.564 20.2419 121.551C19.2223 121.504 18.1716 121.336 17.018 121.046C7.49591 118.658 0.187582 109.36 0.00362571 99.4142C-0.177212 89.1501 6.42336 79.9928 16.0514 77.1399C16.7997 76.9186 17.5075 76.8437 18.128 76.7814C18.3587 76.7533 18.58 76.7346 18.8232 76.7003C21.3737 71.1785 24.3388 66.3489 27.8464 62.0057C31.6503 63.5709 35.3855 64.3316 39.1613 64.3316L39.4699 64.3254L39.4731 64.3285Z" fill="white"/>
<path d="M156.219 102.632C154.48 112.276 148.606 118.673 139.233 121.137C137.783 121.514 136.57 121.698 135.523 121.698C133.602 121.698 132.078 121.084 130.977 119.871C129.209 117.9 129.25 115.057 129.521 112.528C130.12 106.925 130.581 101.887 130.141 97.0041C129.521 90.0855 127.497 83.5161 124.314 77.6046C124.361 77.2211 124.395 76.7939 124.408 76.3449C124.476 73.5669 124.245 70.767 123.719 68.017C122.378 61.0392 119.759 54.8938 115.877 49.6495C116.161 49.8459 116.438 50.0486 116.713 50.2575C124.878 56.353 131.675 64.8368 136.941 75.4969L138.485 76.2171C139.43 76.6567 140.334 77.034 141.204 77.405C143.093 78.2001 144.858 78.9421 146.498 80.0677C154.53 85.577 157.888 93.378 156.216 102.638L156.219 102.632Z" fill="white"/>
<path d="M133.746 172.984C132.399 172.984 131.011 172.691 129.505 172.083L129.387 172.036C123.348 169.607 117.102 167.094 110.913 164.834C110.804 164.793 110.561 164.747 110.249 164.747C109.81 164.747 109.492 164.837 109.407 164.881C99.3117 170.181 88.9416 172.866 78.5808 172.866C71.3192 172.866 63.9329 171.544 56.6215 168.934C40.5269 163.194 28.4575 152.693 20.7439 137.724C17.8816 132.165 20.2107 129.424 22.6707 128.105C23.7027 127.55 24.7472 127.27 25.7699 127.27C27.5502 127.27 30.0414 128.099 31.7968 132.052C31.8591 132.196 31.9652 132.383 32.0836 132.598L32.2302 132.863C41.4467 149.837 59.1002 160.375 78.3064 160.375C87.1675 160.375 95.988 158.068 103.814 153.7C105.95 152.509 108.004 151.929 110.093 151.929C111.768 151.929 113.448 152.297 115.232 153.058C119.248 154.766 123.348 156.369 127.672 158.056C126.331 154.408 125.034 150.962 123.36 147.863C119.313 140.371 123.017 134.7 125.995 130.144L126.085 130.007C127.232 128.252 129.646 127.631 131.364 127.631C132.081 127.631 132.742 127.734 133.325 127.94C135.844 128.825 136.991 132.068 136.973 133.982C136.951 136.084 135.8 137.973 134.937 139.211C134.195 140.274 133.986 141.029 134.712 142.678C136.44 146.604 137.992 150.632 139.495 154.526L139.523 154.601C140.212 156.394 140.929 158.246 141.646 160.051C143.726 165.283 141.737 168.657 139.701 170.568C138.014 172.152 135.956 172.987 133.755 172.987L133.746 172.984Z" fill="white"/>
<path d="M119.226 78.1314C119.073 77.4954 118.92 76.8624 118.767 76.2264C116.675 67.4433 112.691 59.6049 106.879 52.7174C104.6 50.0173 101.896 47.8005 98.8004 46.0202C93.21 42.8057 87.0646 41.3621 80.8475 40.1024C75.2291 38.9613 69.5794 37.9885 64.1106 36.1895C55.7235 33.427 49.4597 28.2576 45.6059 20.2383C42.6626 14.1148 40.0904 7.8634 38.6281 1.20045C38.5533 0.857484 38.3693 0.514514 38.5533 6.10352e-05C38.9586 0.611169 39.3171 1.14121 39.6663 1.67125C44.1374 8.49321 50.5759 12.0726 58.5358 13.2106C62.4114 13.7625 66.3275 14.0742 70.1562 14.9379C77.8699 16.6746 83.9062 20.7652 87.8784 27.6963C88.8855 29.4548 89.5495 31.3567 90.0889 33.3054C90.3883 34.3873 90.2636 34.5339 89.1068 34.353C83.7815 33.5237 78.5184 32.4106 73.3458 30.8828C69.1648 29.6481 65.0086 28.3324 61.0052 26.5864C54.6354 23.8052 49.5719 19.4152 45.4282 13.8934C45.2193 13.6128 45.1133 13.2293 44.5303 13.011C45.5062 14.8724 46.6317 16.4283 47.8228 17.9248C53.912 25.5824 61.8876 30.2904 71.2662 32.7442C76.2611 34.0506 81.2934 35.2136 86.2882 36.52C91.6573 37.923 96.9109 39.6846 101.606 42.7215C111.188 48.9167 116.946 57.7185 119.085 68.9024C119.547 71.3157 119.756 73.7632 119.69 76.2233C119.675 76.8687 119.569 77.5141 119.503 78.1595C119.41 78.1532 119.316 78.1439 119.223 78.1376L119.226 78.1314Z" fill="white"/>
<path d="M110.062 61.2574C109.467 60.7554 108.918 60.3096 108.388 59.8419C102.13 54.2983 94.9466 50.4944 86.8245 48.5021C81.3994 47.1707 76.0647 47.8504 70.7986 49.4468C65.1053 51.1741 59.7924 53.8555 54.2893 56.0723C49.5095 57.9992 44.6363 59.5488 39.42 59.608C34.2069 59.6673 29.4895 57.9524 25.0652 55.3552C20.5443 52.6988 16.1605 49.8428 12.2538 46.3164C11.755 45.8643 11.1906 45.4684 10.8258 44.8136C11.3527 44.664 11.6895 44.9196 12.0449 45.0693C17.8286 47.5262 23.656 47.573 29.4677 45.2501C32.7134 43.95 35.7471 42.1852 38.89 40.6512C43.1272 38.5841 47.5453 37.2714 52.3344 37.5832C57.3947 37.9168 61.8845 39.6379 65.7257 42.999C66.6455 43.8065 65.8567 44.003 65.3298 44.2618C60.0699 46.8683 54.6104 48.9667 48.9857 50.6316C45.7556 51.5888 42.5255 52.5865 39.1768 53.0199C33.9107 53.6996 28.7288 53.2538 23.6653 51.6075C23.2943 51.4859 22.9295 51.277 22.2966 51.3861C23.9522 52.1843 25.5017 52.7362 27.0888 53.1945C35.5351 55.6265 43.8038 54.8969 51.9789 51.9037C57.7532 49.7898 63.4029 47.3298 69.33 45.6461C69.33 45.6461 69.3425 45.643 69.3612 45.6367C69.7384 45.5307 70.1188 45.431 70.4992 45.3343C70.9575 45.2189 71.2912 45.1316 71.5313 45.035C72.0582 44.904 72.6599 44.7637 73.3084 44.6359C73.5454 44.6328 73.8541 44.586 74.2438 44.5143C75.6094 44.2649 76.9751 44.0934 78.3376 44.003H78.3626C78.4717 43.9936 78.5808 43.9874 78.69 43.9843C81.4306 43.8377 84.1712 44.0404 86.9025 44.6172C96.6552 46.6781 104.297 51.8507 109.729 60.2347C109.897 60.4935 110.178 60.7274 110.059 61.248L110.062 61.2574Z" fill="white"/>
<path d="M78.6962 43.9936C78.5964 44.0029 78.4873 44.0092 78.3688 44.0123C78.478 44.0029 78.587 43.9967 78.6962 43.9936Z" fill="white"/>
</svg>
